<svg id="Capa_1" enable-background="new 0 0 512 512" height="512" viewBox="0 0 512 512" width="512" xmlns="http://www.w3.org/2000/svg"><g><g><g><g><g><g><g><path d="m1.21 230.945c12.592-129.626 121.859-230.945 254.79-230.945 141.385 0 256 114.615 256 256s-114.615 256-256 256c-30.739 0-60.213-5.418-87.518-15.35z" fill="#ff636e"/></g></g></g></g></g></g><path d="m67.222 210.688 51.527 251.986s33.003 27.888 49.717 33.969c27.31 9.937 56.789 15.357 87.534 15.357 141.385 0 256-114.615 256-256 0-12.671-.921-25.127-2.699-37.305l-87.631-87.949-45.983-45.665-33.768 19.067-70.919-70.919-30 63.803 77.532 77.532-7.717 7.717-30.397-30.397-29.945 18.771-48.54-48.54-21.213 21.213 43.674 43.674-111.17 69.686z" fill="#f03049"/><g><path d="m448.443 178.184c-3.401-9.825-14.238-14.957-24.178-11.907l-122.762 37.663-2.133-6.952 113.816-34.919c10.124-3.106 15.813-13.831 12.707-23.956-3.106-10.124-13.831-15.813-23.955-12.707l-106.756 32.753s2.307 7.501 2.312 7.535c1.915 13.035-8.307 26.653-19.759 30.838-.451.164-.907.318-1.372.46l-57.369 17.601-3.658-11.924c.011-.02-.023-.02-.012-.039l56.7-17.396c10.836-3.324 16.85-14.973 13.127-25.809-3.551-10.337-14.94-15.75-25.39-12.544l-108.234 33.207c-19.018 5.834-31.906 22.28-34.196 40.855-.001.016-.013.03-.029.035 0 0-23.382 7.174-53.475 16.406l36.971 120.157c31.316-9.608 55.871-17.142 55.871-17.142.014-.004.031-.001.042.01 13.294 12.653 32.342 18.547 51.217 14.534l.07.228 37.3-11.444 73.513-22.554 74.726-22.927c7.995-2.453 12.528-10.853 10.235-18.857-2.364-8.255-11.396-12.833-19.605-10.315l-76.087 23.344-1.769-5.767 112.947-34.653c9.531-2.924 14.886-13.021 11.962-22.551-2.924-9.53-13.02-14.886-22.551-11.962l-102.502 31.448-1.769-5.767 131.556-40.362c10.345-3.174 16.059-14.305 12.489-24.62zm-229.444 36.426.005.017z" fill="#ffbeaa"/></g><g><path d="m448.443 178.184c-.154-.444-.34-.868-.523-1.292l-364.402 124.487 17.281 56.162c31.316-9.608 55.871-17.142 55.871-17.142.014-.004.031-.001.042.01 13.294 12.653 32.342 18.547 51.217 14.534l.07.228 37.3-11.444 73.513-22.554 74.726-22.927c7.995-2.453 12.528-10.853 10.235-18.857-2.364-8.255-11.396-12.833-19.605-10.315l-76.087 23.344-1.769-5.767 112.947-34.653c9.531-2.924 14.886-13.021 11.962-22.551-2.924-9.53-13.02-14.886-22.551-11.962l-102.502 31.448-1.769-5.767 131.556-40.362c10.344-3.174 16.058-14.305 12.488-24.62z" fill="#faa68e"/></g><g><path d="m442.451 269.534c-5.217-8.495-16.332-11.153-24.828-5.936l-91.367 56.104-3.156-5.14 117.265-72.008c9.222-5.663 11.968-17.87 5.929-26.963-5.752-8.662-17.529-10.917-26.389-5.477l-109.425 67.195-3.805-6.197 101.452-62.297c9.024-5.542 11.847-17.35 6.306-26.374s-17.349-11.848-26.373-6.306l-95.16 58.432s4.111 6.685 4.124 6.716c5.117 12.141-1.371 27.884-11.411 34.802-.395.271-.799.535-1.213.789l-51.137 31.401-6.526-10.628c.006-.022-.028-.013-.021-.035l50.54-31.035c9.659-5.931 12.566-18.714 6.249-28.274-6.026-9.119-18.407-11.509-27.721-5.789l-96.476 59.242c-16.952 10.41-25.314 29.558-22.881 48.114.003.016-.006.033-.02.042 0 0-14.072 8.641-33.971 20.86l63.464 108.556c22.306-13.697 38.515-23.651 38.515-23.651.013-.008.03-.008.043 0 16.038 8.922 35.955 9.861 53.224 1.25l.125.203 33.248-20.416 65.527-40.238 66.608-40.901c7.126-4.376 9.412-13.643 5.189-20.819-4.355-7.4-14.246-9.572-21.563-5.079l-67.821 41.646-3.156-5.14 100.677-61.822c8.494-5.216 11.151-16.332 5.935-24.827zm-209.178 38.757.01.016z" fill="#ffdecf"/></g><g><path d="m442.451 269.534c-5.217-8.495-16.332-11.153-24.828-5.936l-91.367 56.104-3.156-5.14 117.265-72.008c9.222-5.663 11.968-17.87 5.929-26.963-.183-.275-.388-.524-.583-.787l-308.204 205.96 28.391 48.564c22.306-13.697 38.515-23.651 38.515-23.651.013-.008.03-.008.043 0 16.038 8.922 35.955 9.861 53.224 1.25l.125.203 33.248-20.416 65.527-40.238 66.608-40.901c7.126-4.376 9.412-13.643 5.189-20.819-4.355-7.4-14.246-9.572-21.563-5.079l-67.821 41.646-3.156-5.14 100.677-61.822c8.496-5.216 11.153-16.332 5.937-24.827z" fill="#ffcdbe"/></g><g><path d="m67.222 210.688-66.011 20.252c-.801 8.246-1.211 16.605-1.211 25.06 0 25.901 3.857 50.9 11.01 74.465l84.055-29.023z" fill="#e9edf5"/></g><g><path d="m9.854 326.544c4.996 17.465 11.797 34.169 20.192 49.892 4.442 8.32 88.474 1.452 88.474 1.452l-24.567-80.074z" fill="#cdd2e1"/></g><g><path d="m99.335 333.896-69.289 42.548c15.682 29.359 36.92 55.303 62.309 76.429l56.572-38.216z" fill="#fff"/></g><g><path d="m91.077 451.79c22.76 19.191 48.903 34.496 77.42 44.867l22.35-13.724-42.588-69.355z" fill="#e9edf5"/></g><g><ellipse cx="78.927" cy="397.776" fill="#7e8596" rx="18.927" ry="18.927" transform="matrix(.867 -.498 .498 .867 -187.671 92.193)"/></g><g><ellipse cx="38.5" cy="256.182" fill="#7e8596" rx="18.927" ry="18.927" transform="matrix(.179 -.984 .984 .179 -220.434 248.153)"/></g><g><path d="m310.622 82.032h63.803v30h-63.803z" fill="#fcd748" transform="matrix(-.707 .707 -.707 -.707 653.335 -76.557)"/></g><g><path d="m136.866 95.164h63.803v30h-63.803z" fill="#ffe85f" transform="matrix(.707 .707 -.707 .707 127.329 -87.07)"/></g><g><path d="m224.099 50.131h63.803v30h-63.803z" fill="#ffe85f" transform="matrix(0 1 -1 0 321.13 -190.869)"/></g><g><path d="m256.12 33.229h14.88v63.803h-14.88z" fill="#fcd748"/></g></g></svg>