<?xml version="1.0"?>
<svg xmlns="http://www.w3.org/2000/svg" xmlns:xlink="http://www.w3.org/1999/xlink" xmlns:svgjs="http://svgjs.com/svgjs" version="1.1" width="512" height="512" x="0" y="0" viewBox="0 0 508 508" style="enable-background:new 0 0 512 512" xml:space="preserve" class=""><g transform="matrix(1.4999999999999998,0,0,1.4999999999999998,-126.99999999999994,-126.99999999999994)">
<circle xmlns="http://www.w3.org/2000/svg" style="" cx="254" cy="254" r="254" fill="#fd8469" data-original="#fd8469" class=""/>
<path xmlns="http://www.w3.org/2000/svg" style="" d="M386,131.6H122c-9.6,0-17.2,7.6-17.2,17.2v213.6c0,9.6,7.6,17.2,17.2,17.2h264  c9.6,0,17.2-7.6,17.2-17.2V148.8C402.8,139.2,395.2,131.6,386,131.6z" fill="#ffffff" data-original="#ffffff" class=""/>
<path xmlns="http://www.w3.org/2000/svg" style="" d="M402.8,197.6v-48.8c0-9.6-7.6-17.2-17.2-17.2H122c-9.6,0-17.2,7.6-17.2,17.2v48.8H402.8z" fill="#4cdbc4" data-original="#4cdbc4" class=""/>
<g xmlns="http://www.w3.org/2000/svg">
	<path style="" d="M172,164.8L172,164.8c-6,0-10.8-4.8-10.8-10.8v-45.2c0-6,4.8-10.8,10.8-10.8l0,0   c6,0,10.8,4.8,10.8,10.8V154C182.8,160,178,164.8,172,164.8z" fill="#324a5e" data-original="#324a5e" class=""/>
	<path style="" d="M336,164.8L336,164.8c-6,0-10.8-4.8-10.8-10.8v-45.2c0-6,4.8-10.8,10.8-10.8l0,0   c6,0,10.8,4.8,10.8,10.8V154C346.8,160,341.6,164.8,336,164.8z" fill="#324a5e" data-original="#324a5e" class=""/>
</g>
<g xmlns="http://www.w3.org/2000/svg">
	<rect x="206.8" y="221.2" style="" width="30" height="30" fill="#ced5e0" data-original="#ced5e0"/>
	<rect x="271.2" y="221.2" style="" width="30" height="30" fill="#ced5e0" data-original="#ced5e0"/>
	<rect x="336" y="221.2" style="" width="30" height="30" fill="#ced5e0" data-original="#ced5e0"/>
	<rect x="142" y="271.6" style="" width="30" height="30" fill="#ced5e0" data-original="#ced5e0"/>
	<rect x="206.8" y="271.6" style="" width="30" height="30" fill="#ced5e0" data-original="#ced5e0"/>
	<rect x="271.2" y="271.6" style="" width="30" height="30" fill="#ced5e0" data-original="#ced5e0"/>
</g>
<rect xmlns="http://www.w3.org/2000/svg" x="336" y="271.6" style="" width="30" height="30" fill="#ff7058" data-original="#ff7058"/>
<g xmlns="http://www.w3.org/2000/svg">
	<rect x="142" y="322" style="" width="30" height="30" fill="#ced5e0" data-original="#ced5e0"/>
	<rect x="206.8" y="322" style="" width="30" height="30" fill="#ced5e0" data-original="#ced5e0"/>
	<rect x="271.2" y="322" style="" width="30" height="30" fill="#ced5e0" data-original="#ced5e0"/>
</g>
<g xmlns="http://www.w3.org/2000/svg">
</g>
<g xmlns="http://www.w3.org/2000/svg">
</g>
<g xmlns="http://www.w3.org/2000/svg">
</g>
<g xmlns="http://www.w3.org/2000/svg">
</g>
<g xmlns="http://www.w3.org/2000/svg">
</g>
<g xmlns="http://www.w3.org/2000/svg">
</g>
<g xmlns="http://www.w3.org/2000/svg">
</g>
<g xmlns="http://www.w3.org/2000/svg">
</g>
<g xmlns="http://www.w3.org/2000/svg">
</g>
<g xmlns="http://www.w3.org/2000/svg">
</g>
<g xmlns="http://www.w3.org/2000/svg">
</g>
<g xmlns="http://www.w3.org/2000/svg">
</g>
<g xmlns="http://www.w3.org/2000/svg">
</g>
<g xmlns="http://www.w3.org/2000/svg">
</g>
<g xmlns="http://www.w3.org/2000/svg">
</g>
</g></svg>
