<svg height="512pt" viewBox="-66 0 512 512" width="512pt" xmlns="http://www.w3.org/2000/svg"><path d="m314.839844 23.039062c-2.910156-7.839843-10.390625-13.039062-18.75-13.039062h-212.179688c-8.359375 0-15.839844 5.199219-18.75 13.039062l-32.300781 86.960938h314.28125zm0 0" fill="#c3ea21"/><path d="m350 110c11.050781 0 20 8.949219 20 20s-8.949219 20-20 20c-15.09375 0-304.902344 0-320 0-11.050781 0-20-8.949219-20-20s8.949219-20 20-20zm0 0" fill="#7c8388"/><path d="m347.648438 150-45.238282 334.78125c-1.378906 9.867188-9.832031 17.21875-19.800781 17.21875h-185.21875c-9.96875 0-18.421875-7.351562-19.800781-17.21875l-45.238282-334.78125zm0 0" fill="#c3ea21"/><path d="m110 10h160v60h-160zm0 0" fill="#7c8388"/><path d="m137.371094 319.066406 1.371094 5.109375c1.421874 5.320313 6.894531 8.507813 12.246093 7.070313 5.335938-1.429688 8.5-6.910156 7.070313-12.246094l-7.320313-27.320312c-1.417969-5.289063-6.902343-8.496094-12.246093-7.070313l-27.320313 7.320313c-5.335937 1.429687-8.5 6.914062-7.070313 12.246093 1.429688 5.335938 6.914063 8.503907 12.246094 7.070313l2.792969-.746094-18.5 29.601562c-12.472656 19.964844 1.839844 45.898438 25.4375 45.898438h7.351563c5.523437 0 10-4.476562 10-10s-4.476563-10-10-10h-7.351563c-7.882813 0-12.625-8.660156-8.476563-15.300781zm0 0"/><path d="m279.355469 340.097656-2.976563-4.761718c-2.933594-4.683594-9.105468-6.105469-13.78125-3.171876-4.683594 2.929688-6.105468 9.101563-3.171875 13.78125l2.972657 4.753907c4.15625 6.648437-.601563 15.300781-8.476563 15.300781h-39.777344l2.925781-2.929688c3.90625-3.90625 3.90625-10.234374 0-14.140624s-10.234374-3.90625-14.140624 0l-20 20c-3.90625 3.90625-3.878907 10.261718 0 14.140624l20 20c3.90625 3.90625 10.234374 3.90625 14.140624 0s3.90625-10.234374 0-14.140624l-2.925781-2.929688h39.777344c23.578125 0 37.925781-25.914062 25.433594-45.902344zm0 0"/><path d="m201.941406 284.363281c-1.429687 5.332031 1.734375 10.816407 7.070313 12.246094l27.320312 7.320313c.019531.003906.042969.003906.0625.011718 5.273438 1.375 10.757813-1.757812 12.183594-7.085937l7.320313-27.316407c1.429687-5.335937-1.738282-10.816406-7.070313-12.25-5.339844-1.429687-10.816406 1.738282-12.25 7.074219l-1.367187 5.109375-19.773438-31.632812c-11.742188-18.78125-39.113281-18.816406-50.878906 0l-2.96875 4.75c-2.929688 4.683594-1.503906 10.851562 3.179687 13.777344 4.683594 2.929687 10.851563 1.507812 13.777344-3.175782l2.972656-4.75c3.910157-6.257812 13.035157-6.28125 16.960938 0l18.5 29.597656-2.792969-.75c-5.335938-1.429687-10.820312 1.738282-12.246094 7.074219zm0 0"/><path d="m235 512h47.609375c14.875 0 27.644531-11.105469 29.710937-25.882812l44.164063-326.832032c13.4375-2.972656 23.515625-14.972656 23.515625-29.285156 0-15.113281-11.238281-27.648438-25.796875-29.699219l-29.988281-80.738281c-4.34375-11.703125-15.644532-19.5625-28.125-19.5625h-212.179688c-12.480468 0-23.78125 7.859375-28.125 19.558594l-29.988281 80.742187c-14.558594 2.050781-25.796875 14.585938-25.796875 29.699219 0 14.3125 10.078125 26.3125 23.511719 29.285156l44.175781 326.878906c2.058594 14.730469 14.828125 25.835938 29.703125 25.835938h47.609375c5.523438 0 10-4.476562 10-10s-4.476562-10-10-10h-47.609375c-4.957031 0-9.210937-3.699219-9.890625-8.558594l-43.707031-323.441406h292.414062l-43.699219 323.394531c-.6875 4.90625-4.941406 8.605469-9.898437 8.605469h-47.609375c-5.523438 0-10 4.476562-10 10s4.476562 10 10 10zm-115-492h140v40h-140zm-45.464844 6.519531c1.445313-3.898437 5.214844-6.519531 9.375-6.519531h16.089844v50c0 5.523438 4.476562 10 10 10h160c5.523438 0 10-4.476562 10-10v-50h16.089844c4.160156 0 7.929687 2.621094 9.375 6.519531l27.292968 73.480469h-285.515624zm-44.535156 93.480469h320c5.515625 0 10 4.484375 10 10s-4.484375 10-10 10h-320c-5.515625 0-10-4.484375-10-10s4.484375-10 10-10zm0 0"/><path d="m200 502c0 5.523438-4.476562 10-10 10s-10-4.476562-10-10 4.476562-10 10-10 10 4.476562 10 10zm0 0"/></svg>