<?xml version="1.0"?>
<svg xmlns="http://www.w3.org/2000/svg" xmlns:xlink="http://www.w3.org/1999/xlink" xmlns:svgjs="http://svgjs.com/svgjs" version="1.1" width="512" height="512" x="0" y="0" viewBox="0 0 64 64" style="enable-background:new 0 0 512 512" xml:space="preserve" class=""><g><path xmlns="http://www.w3.org/2000/svg" d="m22 57h-2c-2.757 0-5-2.243-5-5v-12c0-2.757 2.243-5 5-5h2c2.757 0 5 2.243 5 5v12c0 2.757-2.243 5-5 5z" fill="#f0bc5e" data-original="#f0bc5e" style=""/><path xmlns="http://www.w3.org/2000/svg" d="m48 49h-7v-2h7c1.654 0 3-1.346 3-3v-3h2v3c0 2.757-2.243 5-5 5z" fill="#ffffff" data-original="#000000" style="" class=""/><path xmlns="http://www.w3.org/2000/svg" d="m51 37h2v2h-2z" fill="#ffffff" data-original="#000000" style="" class=""/><path xmlns="http://www.w3.org/2000/svg" d="m44.293 52.707-4.707-4.707 4.707-4.707 1.414 1.414-3.293 3.293 3.293 3.293z" fill="#ffffff" data-original="#000000" style="" class=""/><path xmlns="http://www.w3.org/2000/svg" d="m34.625 57 2.724-21.792c-.432-.122-.879-.208-1.349-.208h-2c-2.757 0-5 2.243-5 5v12c0 2.757 2.243 5 5 5z" fill="#f0bc5e" data-original="#f0bc5e" style=""/><path xmlns="http://www.w3.org/2000/svg" d="m8 35h-2c-.47 0-.917.086-1.349.208l2.724 21.792h.625c2.757 0 5-2.243 5-5v-12c0-2.757-2.243-5-5-5z" fill="#f0bc5e" data-original="#f0bc5e" style=""/><path xmlns="http://www.w3.org/2000/svg" d="m58 1h-8c-1.564 0-3.061.747-4 2l-1.5 2h-16.5c-2.757 0-5 2.243-5 5v13h-19c-1.654 0-3 1.346-3 3v2c0 1.338.886 2.461 2.098 2.846l3.472 27.774c.312 2.497 2.445 4.38 4.961 4.38h18.938c2.517 0 4.649-1.883 4.961-4.38l2.953-23.62h19.617c2.757 0 5-2.243 5-5v-24c0-2.757-2.243-5-5-5zm-30 6h17.5l2.1-2.8c.564-.752 1.461-1.2 2.4-1.2h8c1.654 0 3 1.346 3 3v3h-35.816c.414-1.161 1.514-2 2.816-2zm-25 19c0-.552.448-1 1-1h34c.552 0 1 .448 1 1v2c0 .552-.448 1-1 1h-34c-.552 0-1-.448-1-1zm30.445 32.372c-.187 1.498-1.466 2.628-2.976 2.628h-18.938c-1.51 0-2.789-1.13-2.977-2.628l-3.421-27.372h31.735zm24.555-25.372h-19.367l.269-2.154c1.212-.385 2.098-1.508 2.098-2.846v-2c0-1.654-1.346-3-3-3h-13v-12h36v19c0 1.654-1.346 3-3 3z" fill="#ffffff" data-original="#000000" style="" class=""/><path xmlns="http://www.w3.org/2000/svg" d="m57 5h2v2h-2z" fill="#ffffff" data-original="#000000" style="" class=""/><path xmlns="http://www.w3.org/2000/svg" d="m53 5h2v2h-2z" fill="#ffffff" data-original="#000000" style="" class=""/><path xmlns="http://www.w3.org/2000/svg" d="m49 5h2v2h-2z" fill="#ffffff" data-original="#000000" style="" class=""/><path xmlns="http://www.w3.org/2000/svg" d="m57 29h2v2h-2z" fill="#ffffff" data-original="#000000" style="" class=""/><path xmlns="http://www.w3.org/2000/svg" d="m53 29h2v2h-2z" fill="#ffffff" data-original="#000000" style="" class=""/><path xmlns="http://www.w3.org/2000/svg" d="m49 29h2v2h-2z" fill="#ffffff" data-original="#000000" style="" class=""/><path xmlns="http://www.w3.org/2000/svg" d="m10 14c0-1.654 1.346-3 3-3h4.586l-2.293 2.293 1.414 1.414 4.707-4.707-4.707-4.707-1.414 1.414 2.293 2.293h-4.586c-2.757 0-5 2.243-5 5v3h2z" fill="#ffffff" data-original="#000000" style="" class=""/><path xmlns="http://www.w3.org/2000/svg" d="m8 19h2v2h-2z" fill="#ffffff" data-original="#000000" style="" class=""/></g></svg>
